<svg viewBox="0 0 800 800" xmlns="http://www.w3.org/2000/svg"><path d="M511.0197668244721,131.8252982266771 L553.2423496570358,107.45214187094325 M511.0197668244721,131.8252982266771 L526.0842537634295,143.83587786766878 M526.0842537634295,143.83587786766878 L536.9849074495195,159.57723974475155 M536.9849074495195,159.57723974475155 L543.7108017977561,177.7745496777768 M543.7108017977561,177.7745496777768 L546.774219123262,197.1994869865677 M546.774219123262,197.1994869865677 L546.4334514374997,223.50847365712423 M546.4334514374997,223.50847365712423 L539.5790851291264,261.94182674194525 M539.5790851291264,261.94182674194525 L520.9461632197496,316.55906018315216 M520.9461632197496,316.55906018315216 L479.8637619791881,396.47876193044794 M479.8637619791881,396.47876193044794 L426.57812293376355,473.1734167602019 M553.2423496570358,107.45214187094325 L522.9195742101688,94.20573959835792 M522.9195742101688,94.20573959835792 L494.35934553104255,90.23230805708829 M494.35934553104255,90.23230805708829 L469.2215226093182,95.76209417942448 M469.2215226093182,95.76209417942448 L448.96676159519643,110.47294230121622 M448.96676159519643,110.47294230121622 L434.77173253949366,133.50919567739317 M434.77173253949366,133.50919567739317 L427.46078573066086,163.53159530563022 M427.46078573066086,163.53159530563022 L427.4582232005188,198.7952247612306 M427.4582232005188,198.7952247612306 L434.7637620207371,237.2509334384967 M434.7637620207371,237.2509334384967 L448.9526496387027,276.6643872499536 M448.9526496387027,276.6643872499536 L469.20040191551243,314.7457890010501 M469.20040191551243,314.7457890010501 L494.3306518275572,349.2827345584082 M494.3306518275572,349.2827345584082 L522.8834894410898,378.26869012727065 M522.8834894410898,378.26869012727065 L553.2001317639409,400.0194087273674 M553.2001317639409,400.0194087273674 L583.5192096192716,413.2707377606902 M583.5192096192716,413.2707377606902 L612.0790056831335,417.2521553295578 M612.0790056831335,417.2521553295578 L637.2197600723739,411.73158500004513 M637.2197600723739,411.73158500004513 L657.4801450749911,397.02907121308965 M657.4801450749911,397.02907121308965 L671.6822022483191,373.9983614122795 M671.6822022483191,373.9983614122795 L678.999971249064,343.977444637163 M678.999971249064,343.977444637163 L679.0075871644955,308.710897608284 M679.0075871644955,308.710897608284 L671.7041752527588,270.2485393124654 M671.7041752527588,270.2485393124654 L657.5140008177635,230.82622718414166 M657.5140008177635,230.82622718414166 L637.2618427888596,192.735787748942 M637.2618427888596,192.735787748942 L612.1250774991832,158.19169557011253 M612.1250774991832,158.19169557011253 L583.5651074741751,129.2021216438958 M583.5651074741751,129.2021216438958 L553.2423496570358,107.45214187094325 M510.9845832926047,424.3966288558381 L526.0467356409386,433.82068485740996 M526.0467356409386,433.82068485740996 L536.9465730319139,442.2258334409346 M536.9465730319139,442.2258334409346 L543.6729771389173,449.40620502615815 M543.6729771389173,449.40620502615815 L546.7378972677044,455.3797484128453 M546.7378972677044,455.3797484128453 L546.4000749612619,461.71333979920564 M546.4000749612619,461.71333979920564 L539.5510424823261,468.5131487401407 M539.5510424823261,468.5131487401407 L520.9265458244042,474.5057637728268 M520.9265458244042,474.5057637728268 L479.85568500666295,477.02484012041856 M479.85568500666295,477.02484012041856 L426.57812293376355,473.1734167602019 M173.1863215368698,326.8775920132611 L264.84727362389225,341.914697553285 M264.84727362389225,341.914697553285 L352.42866939556274,362.7884746217367 M352.42866939556274,362.7884746217367 L399.80487576791876,376.95194498075364 M399.80487576791876,376.95194498075364 L439.015085080394,390.8947364818521 M439.015085080394,390.8947364818521 L469.2876474774123,403.45465580368864 M469.2876474774123,403.45465580368864 L490.97603154720775,413.68260449630367 M490.97603154720775,413.68260449630367 L501.4031411637649,419.07634098421966 M501.4031411637649,419.07634098421966 L510.9845832926047,424.3966288558381 M173.1863215368698,326.8775920132611 L264.84501642508576,228.77193650989898 M264.84501642508576,228.77193650989898 L352.434653036923,162.91400219431299 M352.434653036923,162.91400219431299 L399.81845720436394,138.3605686807549 M399.81845720436394,138.3605686807549 L439.0361244381114,125.44320617121934 M439.0361244381114,125.44320617121934 L469.31482887447066,121.7917088480553 M469.31482887447066,121.7917088480553 L491.00755705156485,124.08082520115403 M491.00755705156485,124.08082520115403 L501.43664140382396,127.25739010650864 M501.43664140382396,127.25739010650864 L511.0197668244721,131.8252982266771 M511.0197668244721,131.8252982266771 L490.41020895924794,140.77300153906378 M490.41020895924794,140.77300153906378 L471.7285276388491,143.30584583703757 M471.7285276388491,143.30584583703757 L456.27189813802397,140.15403807177825 M456.27189813802397,140.15403807177825 L443.38850296995156,131.7365235527974 M443.38850296995156,131.7365235527974 L433.9872735115715,118.71840762678602 M433.9872735115715,118.71840762678602 L428.44280593910355,102.36066519937174 M428.44280593910355,102.36066519937174 L427.0252693159488,92.83915994923302 M427.0252693159488,92.83915994923302 L426.574603114365,83.02751331601576 M426.574603114365,83.02751331601576 L442.2713904172663,95.40384085104938 M442.2713904172663,95.40384085104938 L455.0029030459673,112.20420010996565 M455.0029030459673,112.20420010996565 L464.5853807648691,132.05366769127755 M464.5853807648691,132.05366769127755 L471.29062712940004,153.58470935700413 M471.29062712940004,153.58470935700413 L476.6046808380511,183.16351424946026 M476.6046808380511,183.16351424946026 L479.06403247239814,226.98142877768083 M479.06403247239814,226.98142877768083 L474.9324376699386,289.9802417996833 M474.9324376699386,289.9802417996833 L456.56423394075273,383.02347872150375 M456.56423394075273,383.02347872150375 L426.57812293376355,473.1734167602019 M426.57812293376355,473.1734167602019 L426.57812293376355,473.1734167602019 M553.2405902972183,119.64439154311742 L525.4448548876974,107.50166546722136 M525.4448548876974,107.50166546722136 L499.2646651385353,103.85905395433093 M499.2646651385353,103.85905395433093 L476.2215446219541,108.92767593836123 M476.2215446219541,108.92767593836123 L457.65447395092826,122.41229930835163 M457.65447395092826,122.41229930835163 L444.64208131905707,143.5286435165683 M444.64208131905707,143.5286435165683 L437.9401187255164,171.0491213543513 M437.9401187255164,171.0491213543513 L437.9375767896174,203.37422645647334 M437.9375767896174,203.37422645647334 L444.63424035272044,238.6255491026596 M444.63424035272044,238.6255491026596 L457.64078408523426,274.7548934742163 M457.64078408523426,274.7548934742163 L476.2013835240731,309.66317808287226 M476.2013835240731,309.66317808287226 L499.23769892783355,341.3223259849219 M499.23769892783355,341.3223259849219 L525.4114024051559,367.8929253866643 M525.4114024051559,367.8929253866643 L553.2018905619243,387.83105253080436 M553.2018905619243,387.83105253080436 L580.9945189674186,399.97791845333506 M580.9945189674186,399.97791845333506 L607.1743451996468,403.62724044821357 M607.1743451996468,403.62724044821357 L630.2199289638007,398.5663622917467 M630.2199289638007,398.5663622917467 L648.7917253453525,385.08874207521245 M648.7917253453525,385.08874207521245 L661.8100235508346,363.9770560129548 M661.8100235508346,363.9770560129548 L668.5177186814178,336.4578241838568 M668.5177186814178,336.4578241838568 L668.5245068649114,304.1302675095986 M668.5245068649114,304.1302675095986 L661.8296304958045,268.87335733605096 M661.8296304958045,268.87335733605096 L648.8220054745112,232.73656951634965 M648.8220054745112,232.73656951634965 L630.2577039822903,197.82069074540217 M630.2577039822903,197.82069074540217 L607.2159138508786,166.15553769453996 M607.2159138508786,166.15553769453996 L581.0362171678349,139.58189786635916 M581.0362171678349,139.58189786635916 L553.2405902972183,119.64439154311742 M510.9845832926047,424.3966288558381 L490.3778191827831,439.2441867702116 M490.3778191827831,439.2441867702116 L471.69769830323787,458.279305835656 M471.69769830323787,458.279305835656 L456.2416907383904,479.2740347759047 M456.2416907383904,479.2740347759047 L443.3581925126823,502.56166167316405 M443.3581925126823,502.56166167316405 L433.95613146414576,526.4276844024469 M433.95613146414576,526.4276844024469 L428.4100878673903,549.1790187468447 M428.4100878673903,549.1790187468447 L426.9914149203686,560.3326268273844 M426.9914149203686,560.3326268273844 L426.5394156729991,570.6599496266641 M426.5394156729991,570.6599496266641 L442.23196375121495,578.9921281952071 M442.23196375121495,578.9921281952071 L454.9609546426177,584.229089981149 M454.9609546426177,584.229089981149 L464.54254089753476,586.464141021322 M464.54254089753476,586.464141021322 L471.2482412854081,586.1316680200783 M471.2482412854081,586.1316680200783 L476.56438116996526,582.6723096275541 M476.56438116996526,582.6723096275541 L479.0286722142275,573.3409690389834 M479.0286722142275,573.3409690389834 L474.90618073867336,554.2153742841816 M474.90618073867336,554.2153742841816 L456.5523344408897,517.3874272869267 M456.5523344408897,517.3874272869267 L426.57812293376355,473.1734167602019 M426.57812293376355,473.1734167602019 L426.57812293376355,473.1734167602019 M173.1863215368698,326.8775920132611 L173.1863215368698,326.8775920132611 M173.1863215368698,326.8775920132611 L232.03931297742952,398.73975228567883 M232.03931297742952,398.73975228567883 L293.9072320774769,464.1505773886186 M293.9072320774769,464.1505773886186 L329.86126040031144,498.0978404625047 M329.86126040031144,498.0978404625047 L361.5411766961702,525.0834820642642 M361.5411766961702,525.0834820642642 L387.5546670968728,545.0203304768135 M387.5546670968728,545.0203304768135 L407.25652252817895,558.6890477019824 M407.25652252817895,558.6890477019824 L417.14119015631184,565.0223212740079 M417.14119015631184,565.0223212740079 L426.5394156729991,570.6599496266641 M173.1863215368698,326.8775920132611 L173.1863215368698,326.8775920132611 M173.1863215368698,326.8775920132611 L232.03201338085745,209.820821676722 M232.03201338085745,209.820821676722 L293.9060937173789,129.10192917723253 M293.9060937173789,129.10192917723253 L329.8680964823452,97.94531783829854 M329.8680964823452,97.94531783829854 L361.556789154572,80.67430967443386 M361.556789154572,80.67430967443386 L387.57816670310285,74.56058112304277 M387.57816670310285,74.56058112304277 L407.2860689524425,75.70164687563977 M407.2860689524425,75.70164687563977 L417.17368822518563,78.56500555762403 M417.17368822518563,78.56500555762403 L426.574603114365,83.02751331601576 M426.57812293376355,34.249368563192775 L426.574603114365,83.02751331601576 M426.57812293376355,34.249368563192775 L453.2225298300053,53.87425202462242 M453.2225298300053,53.87425202462242 L470.9563480239116,76.609471758896 M470.9563480239116,76.609471758896 L478.748369552089,101.13411230543892 M478.748369552089,101.13411230543892 L476.14494562298626,126.0230797116227 M476.14494562298626,126.0230797116227 L463.2965137442736,149.82984055120937 M463.2965137442736,149.82984055120937 L440.9490745503359,171.17055889371335 M440.9490745503359,171.17055889371335 L410.4009758746964,188.8045499791542 M410.4009758746964,188.8045499791542 L373.427567346671,201.70648837474627 M373.427567346671,201.70648837474627 L332.1780074017405,209.12611982350086 M332.1780074017405,209.12611982350086 L289.05026500425595,210.6319542952916 M289.05026500425595,210.6319542952916 L246.55165556428727,206.13642149090236 M246.55165556428727,206.13642149090236 L207.15283121680483,195.90096054253794 M207.15283121680483,195.90096054253794 L173.14408252954877,180.52079847830822 M173.14408252954877,180.52079847830822 L146.5020951499704,160.8902494283074 M146.5020951499704,160.8902494283074 L128.77498121922645,138.15066202442625 M128.77498121922645,138.15066202442625 L120.99241283550447,113.62395230681102 M120.99241283550447,113.62395230681102 L123.60587319326942,88.7356882501166 M123.60587319326942,88.7356882501166 L136.46262555302894,64.93224215125053 M136.46262555302894,64.93224215125053 L158.81476316262848,43.59669057369132 M158.81476316262848,43.59669057369132 L189.3628618383362,25.968534634925106 M189.3628618383362,25.968534634925106 L226.33157195077723,13.071763005385606 M226.33157195077723,13.071763005385606 L267.5728114146125,5.655446298826348 M267.5728114146125,5.655446298826348 L310.69051738330245,4.150315175851063 M310.69051738330245,4.150315175851063 L353.1796736787136,8.643778808431762 M353.1796736787136,8.643778808431762 L392.5717937630501,18.874872085945526 M392.5717937630501,18.874872085945526 L426.57812293376355,34.249368563192775 M426.5394156729991,570.6599496266641 L426.5358980037661,619.4082971017699 M426.5358980037661,619.4082971017699 L392.5409019840906,604.0286739927831 M392.5409019840906,604.0286739927831 L353.1619093017224,593.7941690537631 M353.1619093017224,593.7941690537631 L310.68691212390786,589.2992070051599 M310.68691212390786,589.2992070051599 L267.5835746573322,590.8048400394566 M267.5835746573322,590.8048400394566 L226.3560785967432,598.2236298165844 M226.3560785967432,598.2236298165844 L189.39968855158799,611.124701948575 M189.39968855158799,611.124701948575 L158.86177087846772,628.7587358925762 M158.86177087846772,628.7587358925762 L136.51708352226234,650.1014013688607 M136.51708352226234,650.1014013688607 L123.66461741832956,673.912783826646 M123.66461741832956,673.912783826646 L121.0520297407042,698.8093454733538 M121.0520297407042,698.8093454733538 L128.83200594212843,723.3442317805702 M128.83200594212843,723.3442317805702 L146.55321293662945,746.0913995839516 M146.55321293662945,746.0913995839516 L173.1863215368706,765.7284922978972 M173.1863215368706,765.7284922978972 L207.18373546061406,781.1137809938665 M207.18373546061406,781.1137809938665 L246.56942793810884,791.352653603737 M246.56942793810884,791.352653603737 L289.0538719604847,795.849684824149 M289.0538719604847,795.849684824149 L332.16723916713204,794.3433484410368 M332.16723916713204,794.3433484410368 L373.40305016367745,786.9212439217135 M373.40305016367745,786.9212439217135 L410.3641354931838,774.01500502367 M410.3641354931838,774.01500502367 L440.902053166236,756.3751359329938 M440.902053166236,756.3751359329938 L463.2420452380128,735.027303691764 M463.2420452380128,735.027303691764 L476.0861964060375,711.212606493258 M476.0861964060375,711.212606493258 L478.68875434372353,686.3153414970607 M478.68875434372353,686.3153414970607 L470.8993312978398,661.7825243609169 M470.8993312978398,661.7825243609169 L453.17142450819586,639.0397242271433 M453.17142450819586,639.0397242271433 L426.5358980037661,619.4082971017699 M553.2405902972183,119.64439154311742 L426.5666842356783,192.76843101802118 M426.5666842356783,192.76843101802118 L454.36259285917004,212.70877329561046 M454.36259285917004,212.70877329561046 L480.54311725375317,239.28540926695976 M480.54311725375317,239.28540926695976 L503.58623291166305,270.95354445588004 M503.58623291166305,270.95354445588004 L522.1522806536001,305.8722179497112 M522.1522806536001,305.8722179497112 L535.1619711025232,342.0114505559897 M535.1619711025232,342.0114505559897 L541.8591119924256,377.2703134092599 M541.8591119924256,377.2703134092599 L541.854655788935,409.59921712621383 M541.854655788935,409.59921712621383 L535.1492245712756,437.11911207568994 M535.1492245712756,437.11911207568994 L522.1329906692278,458.2307388452055 M522.1329906692278,458.2307388452055 L503.56293906176757,471.7075808903733 M503.56293906176757,471.7075808903733 L480.51867920290044,476.7670073238094 M480.51867920290044,476.7670073238094 L454.33967912273,473.11564452166607 M454.33967912273,473.11564452166607 L426.5473311431871,460.96626738091425 M426.5473311431871,460.96626738091425 L398.7565614031044,441.0253045755186 M398.7565614031044,441.0253045755186 L372.5820306835626,414.45170984303473 M372.5820306835626,414.45170984303473 L349.54439041486836,382.78958094857313 M349.54439041486836,382.78958094857313 L330.982045428566,347.87850283344414 M330.982045428566,347.87850283344414 L317.9734368504853,311.74671468382155 M317.9734368504853,311.74671468382155 L311.2745090951168,276.4934399274859 M311.2745090951168,276.4934399274859 L311.27471905074754,244.16698778282142 M311.27471905074754,244.16698778282142 L317.97441740236474,216.6458462553583 M317.97441740236474,216.6458462553583 L330.984745148437,195.52956033154632 M330.984745148437,195.52956033154632 L349.5500703430549,182.0457139165486 M349.5500703430549,182.0457139165486 L372.5918662929729,176.97854250979435 M372.5918662929729,176.97854250979435 L398.7712294211546,180.6231940172934 M398.7712294211546,180.6231940172934 L426.5666842356783,192.76843101802118 M416.0200580295383,40.34303793852405 L440.4440069957392,58.33272885637393 M440.4440069957392,58.33272885637393 L456.6997442804096,79.17351374315717 M456.6997442804096,79.17351374315717 L463.8420688147568,101.65451859727767 M463.8420688147568,101.65451859727767 L461.455211433807,124.46937004452684 M461.455211433807,124.46937004452684 L449.6771798984513,146.29211503746106 M449.6771798984513,146.29211503746106 L429.19184695853505,165.85424426160824 M429.19184695853505,165.85424426160824 L401.1894231423577,182.01851316660478 M401.1894231423577,182.01851316660478 L367.29730894202834,193.8450931151085 M367.29730894202834,193.8450931151085 L329.4855171731838,200.64628633523643 M329.4855171731838,200.64628633523643 L289.95215141816107,202.02660893914862 M289.95215141816107,202.02660893914862 L250.9954446671839,197.90578340997575 M250.9954446671839,197.90578340997575 L214.88011178664357,188.523448288285 M214.88011178664357,188.523448288285 L183.70552125010647,174.42518187860875 M183.70552125010647,174.42518187860875 L159.28360534917192,156.43073029302585 M159.28360534917192,156.43073029302585 L143.03350150828555,135.58627535034947 M143.03350150828555,135.58627535034947 L135.89912024286514,113.10353181742119 M135.89912024286514,113.10353181742119 L138.29441100826023,90.28927137881016 M138.29441100826023,90.28927137881016 L150.07943406261566,68.46931168966717 M150.07943406261566,68.46931168966717 L170.56871497733385,48.91152398388397 M170.56871497733385,48.91152398388397 L198.57113879355938,32.7521582232427 M198.57113879355938,32.7521582232427 L232.45930501914154,20.929919793821682 M232.45930501914154,20.929919793821682 L270.264105268952,14.131511874214482 M270.264105268952,14.131511874214482 L309.78903763943606,12.751780279172749 M309.78903763943606,12.751780279172749 L348.7378011214143,16.87086712952737 M348.7378011214143,16.87086712952737 L384.84750055818233,26.249532196032476 M384.84750055818233,26.249532196032476 L416.0200580295383,40.34303793852405 M415.9813513061605,625.5039983637851 L384.81918261706767,611.4057932085235 M384.81918261706767,611.4057932085235 L348.72151680271804,602.0240007869126 M348.72151680271804,602.0240007869126 L309.785732755494,597.90354038869 M309.785732755494,597.90354038869 L270.27397176244125,599.2837320695164 M270.27397176244125,599.2837320695164 L232.48176984833992,606.0844069675044 M232.48176984833992,606.0844069675044 L198.60489713818941,617.9105875243525 M198.60489713818941,617.9105875243525 L170.6118059076993,634.075341456477 M170.6118059076993,634.075341456477 L150.12935427266294,653.6396502365877 M150.12935427266294,653.6396502365877 L138.34826006922646,675.466884923914 M138.34826006922646,675.466884923914 L135.95376900586234,698.2887514838786 M135.95376900586234,698.2887514838786 L143.0857738638024,720.7789902257193 M143.0857738638024,720.7789902257193 L159.33046284466428,741.6303938679456 M159.33046284466428,741.6303938679456 L183.74423980234712,759.6308438115138 M183.74423980234712,759.6308438115138 L214.908440201695,773.7338096339598 M214.908440201695,773.7338096339598 L251.01173570543926,783.1192721107566 M251.01173570543926,783.1192721107566 L289.9554577279142,787.2414711877975 M289.9554577279142,787.2414711877975 L329.4756464851229,785.8606884981006 M329.4756464851229,785.8606884981006 L367.2748352587989,779.0572282995918 M367.2748352587989,779.0572282995918 L401.1556533125905,767.2267062236606 M401.1556533125905,767.2267062236606 L429.14874454303254,751.0570491471805 M429.14874454303254,751.0570491471805 L449.62725083437306,731.4883988487053 M449.62725083437306,731.4883988487053 L461.4013581782691,709.6583788575876 M461.4013581782691,709.6583788575876 L463.78742147757066,686.8359212889848 M463.78742147757066,686.8359212889848 L456.6474786444518,664.347421225952 M456.6474786444518,664.347421225952 L440.3971599741835,643.4996876396192 M440.3971599741835,643.4996876396192 L415.9813513061605,625.5039983637851 M416.0200580295383,40.34303793852405 L416.0103789295068,186.6698508588437 M416.0103789295068,186.6698508588437 L384.8404193030485,172.57516938204617 M384.8404193030485,172.57516938204617 L348.7337290239905,163.19572189041884 M348.7337290239905,163.19572189041884 L309.7882112119003,159.07629139557557 M309.7882112119003,159.07629139557557 L270.266572508966,160.45613809832315 M270.266572508966,160.45613809832315 L232.46492263047168,167.255113187556 M232.46492263047168,167.255113187556 L198.57958048960984,179.07833788794963 M198.57958048960984,179.07833788794963 L170.5794904031534,195.23905170173077 M170.5794904031534,195.23905170173077 L150.09191723526226,214.79847089883128 M150.09191723526226,214.79847089883128 L138.307876639283,236.6202507016847 M138.307876639283,236.6202507016847 L135.91278584946906,259.4364140969613 M135.91278584946906,259.4364140969613 L143.04657286456427,281.9210328377189 M143.04657286456427,281.9210328377189 L159.29532265204625,302.7672262584595 M159.29532265204625,302.7672262584595 L183.7152033084634,320.76317855853625 M183.7152033084634,320.76317855853625 L214.88719566124365,334.8626207028156 M214.88719566124365,334.8626207028156 L250.99951844512753,344.2457382498581 M250.99951844512753,344.2457382498581 L289.9529782022832,348.36690742362833 M289.9529782022832,348.36690742362833 L329.48304888413355,346.9864697119733 M329.48304888413355,346.9864697119733 L367.2916891163603,340.18470932204576 M367.2916891163603,340.18470932204576 L401.18097857394605,328.35714310229787 M401.18097857394605,328.35714310229787 L429.1810686603544,312.1915261438548 M429.1810686603544,312.1915261438548 L449.6646945114668,292.62776542811866 M449.6646945114668,292.62776542811866 L461.4417447537479,270.80320032130004 M461.4417447537479,270.80320032130004 L463.82840356473935,247.98644591734828 M463.82840356473935,247.98644591734828 L456.68667460465065,225.50356585550708 M456.68667460465065,225.50356585550708 L440.4322923123311,204.6610424908891 M440.4322923123311,204.6610424908891 L416.0103789295068,186.6698508588437 M415.9813513061605,625.5039983637851 L415.99102556822106,479.2503249769787 M415.99102556822106,479.2503249769787 L440.4088688020412,497.24451578770385 M440.4088688020412,497.24451578770385 L456.66054178721606,518.0905135017347 M456.66054178721606,518.0905135017347 L463.80107989671546,540.5771411676417 M463.80107989671546,540.5771411676417 L461.41481812654,563.3976986318742 M461.41481812654,563.3976986318742 L449.6397299799479,585.2259012374055 M449.6397299799479,585.2259012374055 L429.1595174530522,604.792922489966 M429.1595174530522,604.792922489966 L401.16409365941433,620.9612335338701 M401.16409365941433,620.9612335338701 L367.2804522749797,632.7907708171264 M367.2804522749797,632.7907708171264 L329.478113540206,639.5936646961262 M329.478113540206,639.5936646961262 L289.9546313571254,640.9743324506496 M289.9546313571254,640.9743324506496 L251.0076639640855,636.8524765030169 M251.0076639640855,636.8524765030169 L214.90135986847423,627.4677952785844 M214.90135986847423,627.4677952785844 L183.7345625841789,613.366003428164 M183.7345625841789,613.366003428164 L159.3187513993043,595.367051949408 M159.3187513993043,595.367051949408 L143.07270904177813,574.5173841792546 M143.07270904177813,574.5173841792546 L135.94011023039843,552.0290178344311 M135.94011023039843,552.0290178344311 L138.3348011692052,529.2090513788738 M138.3348011692052,529.2090513788738 L150.11687733976595,507.38363407730776 M150.11687733976595,507.38363407730776 L170.60103586788722,487.820954343383 M170.60103586788722,487.820954343383 L198.59645966157325,471.6575464441408 M198.59645966157325,471.6575464441408 L232.4761550448369,459.8323506802388 M232.4761550448369,459.8323506802388 L270.2715057556079,453.03224210193355 M270.2715057556079,453.03224210193355 L309.7865587699637,451.65216535631765 M309.7865587699637,451.65216535631765 L348.725586864812,455.7722826250234 M348.725586864812,455.7722826250234 L384.82626033278615,465.1532937940409 M384.82626033278615,465.1532937940409 L415.99102556822106,479.2503249769787" stroke="black"  stroke-width="4"  fill="red"/></svg>