<svg viewBox="0 0 800 800" xmlns="http://www.w3.org/2000/svg"><path d="M521.8288678147713,148.08716638245653 L555.3903995748111,128.71363671542474 M521.8288678147713,148.08716638245653 L531.8499101044682,155.96807172742746 M531.8499101044682,155.96807172742746 L539.1659759361595,166.28695139795258 M539.1659759361595,166.28695139795258 L543.6948737235148,178.45398077723692 M543.6948737235148,178.45398077723692 L545.6030251287594,191.79031288609926 M545.6030251287594,191.79031288609926 L544.7022269134704,210.29247955350613 M544.7022269134704,210.29247955350613 L537.405807687223,239.63496792938741 M537.405807687223,239.63496792938741 L523.0419098495028,272.9981392489707 M523.0419098495028,272.9981392489707 L472.89283042426644,353.84978698207203 M472.89283042426644,353.84978698207203 L387.57248935877686,458.1955241697916 M555.3903995748111,128.71363671542474 L531.2848467233845,118.18472932042022 M531.2848467233845,118.18472932042022 L508.58013227532535,115.02718964261112 M508.58013227532535,115.02718964261112 L488.59580536674,119.42398628084732 M488.59580536674,119.42398628084732 L472.493073600422,131.11896973706797 M472.493073600422,131.11896973706797 L461.2074011586966,149.4319011754103 M461.2074011586966,149.4319011754103 L455.3941828611697,173.29812148626337 M455.3941828611697,173.29812148626337 L455.390797886222,201.33051440111547 M455.390797886222,201.33051440111547 L461.19709965050265,231.90013259905615 M461.19709965050265,231.90013259905615 L472.4755029431599,263.2308356091576 M472.4755029431599,263.2308356091576 L488.5706452594586,293.50240850471926 M488.5706452594586,293.50240850471926 L508.54742057893577,320.9561724777178 M508.54742057893577,320.9561724777178 L531.2453035066884,343.997113684422 M531.2453035066884,343.997113684422 L555.3456558356334,361.2864238773998 M555.3456558356334,361.2864238773998 L579.4482691435176,371.8192476646211 M579.4482691435176,371.8192476646211 L602.1526393841611,374.98313540172813 M602.1526393841611,374.98313540172813 L622.1392962748821,370.59366422681944 M622.1392962748821,370.59366422681944 L638.2464984437117,358.9053054656575 M638.2464984437117,358.9053054656575 L649.5377575899142,340.5967803116846 M649.5377575899142,340.5967803116846 L655.3563990489688,316.7317384506721 M655.3563990489688,316.7317384506721 L655.3638012623729,288.69702618217826 M655.3638012623729,288.69702618217826 L649.5591905121506,258.12212216327833 M649.5591905121506,258.12212216327833 L638.2797646185278,226.78437778237216 M638.2797646185278,226.78437778237216 L622.181120348755,196.50562105731797 M622.181120348755,196.50562105731797 L602.1991659824624,169.0461765291581 M602.1991659824624,169.0461765291581 L579.4956133695359,146.00235938567647 M579.4956133695359,146.00235938567647 L555.3903995748111,128.71363671542474 M521.7897148683401,380.6631840806477 L531.8091084911774,387.0997056441205 M531.8091084911774,387.0997056441205 L539.1247123031792,393.2482441106287 M539.1247123031792,393.2482441106287 L543.6541470188178,398.97153259343264 M543.6541470188178,398.97153259343264 L545.5636490163117,404.2141631666119 M545.5636490163117,404.2141631666119 L544.6654141503432,410.46818120174737 M544.6654141503432,410.46818120174737 L537.3739567784596,419.0879925270093 M537.3739567784596,419.0879925270093 L523.0161481208418,427.874953915631 M523.0161481208418,427.874953915631 L472.88088194157024,445.2824712969227 M472.88088194157024,445.2824712969227 L387.57248935877686,458.1955241697916 M186.13616563429161,341.89620844289146 L294.7850811699173,338.38701789069717 M294.7850811699173,338.38701789069717 L395.7464771109631,343.3435289311094 M395.7464771109631,343.3435289311094 L422.2440765416403,347.2268123248814 M422.2440765416403,347.2268123248814 L446.6793056484862,352.350352613385 M446.6793056484862,352.350352613385 L476.3342541655861,360.89059134071397 M476.3342541655861,360.89059134071397 L496.49816751557296,368.4151766234967 M496.49816751557296,368.4151766234967 L510.00320316422426,374.4546393684057 M510.00320316422426,374.4546393684057 L521.7897148683401,380.6631840806477 M186.13616563429161,341.89620844289146 L294.78563386582823,241.22645898026664 M294.78563386582823,241.22645898026664 L395.7597822657412,172.8272163454498 M395.7597822657412,172.8272163454498 L422.26230074953696,159.3769881016553 M422.26230074953696,159.3769881016553 L446.7025412148523,149.461098316456 M446.7025412148523,149.461098316456 L476.3639818402489,141.93850894663024 M476.3639818402489,141.93850894663024 L496.5323345441335,140.97040293108512 M496.5323345441335,140.97040293108512 L510.04018106094236,143.19623106011608 M510.04018106094236,143.19623106011608 L521.8288678147713,148.08716638245653 M521.8288678147713,148.08716638245653 L489.064689951647,162.3115428322207 M489.064689951647,162.3115428322207 L459.3647317177366,166.337393211272 M459.3647317177366,166.337393211272 L434.7913083210028,161.32530230273747 M434.7913083210028,161.32530230273747 L414.3083318275295,147.94084923790558 M414.3083318275295,147.94084923790558 L399.3611599064375,127.24121481075008 M399.3611599064375,127.24121481075008 L390.54570703124296,101.23114616885323 M390.54570703124296,101.23114616885323 L388.2918461760734,86.09111801983704 M388.2918461760734,86.09111801983704 L387.57528762955775,70.48967808110774 M387.57528762955775,70.48967808110774 L398.1633931701527,78.69880370037987 M398.1633931701527,78.69880370037987 L407.1488782238415,89.98391950127746 M407.1488782238415,89.98391950127746 L414.3716806216888,103.71001203997253 M414.3716806216888,103.71001203997253 L419.8670947727866,119.12219430675435 M419.8670947727866,119.12219430675435 L424.8332390956307,141.01889042297137 M424.8332390956307,141.01889042297137 L428.64892999328674,176.78922996645832 M428.64892999328674,176.78922996645832 L429.0738079343141,218.70465478177994 M429.0738079343141,218.70465478177994 L419.0640310029297,322.7580285316273 M419.0640310029297,322.7580285316273 L387.57248935877686,458.1955241697916 M387.57248935877686,458.1955241697916 L387.57248935877686,458.1955241697916 M555.3885349546151,138.40571708158654 L533.2918911289601,128.7540670767142 M533.2918911289601,128.7540670767142 L512.4792520279175,125.85941781966301 M512.4792520279175,125.85941781966301 L494.1601933589369,129.8895376203588 M494.1601933589369,129.8895376203588 L479.3991918375217,140.6096841741669 M479.3991918375217,140.6096841741669 L469.05376740669135,157.3963620242046 M469.05376740669135,157.3963620242046 L463.72477621068936,179.2736868103616 M463.72477621068936,179.2736868103616 L463.7215199295298,204.9701355682522 M463.7215199295298,204.9701355682522 L469.0438993261233,232.99248936411192 M469.0438993261233,232.99248936411192 L479.3824860769806,261.712574728183 M479.3824860769806,261.712574728183 L494.1364935927011,289.4617812448351 M494.1364935927011,289.4617812448351 L512.4487387318493,314.6279550214254 M512.4487387318493,314.6279550214254 L533.2553452469982,335.74892917271984 M533.2553452469982,335.74892917271984 L555.3475198604143,351.59743841036686 M555.3475198604143,351.59743841036686 L577.4416936529324,361.25237927184935 M577.4416936529324,361.25237927184935 L598.2540435241795,364.15236266242994 M598.2540435241795,364.15236266242994 L616.5750600258185,360.1283982870911 M616.5750600258185,360.1283982870911 L631.3398179255091,349.4138183150207 M631.3398179255091,349.4138183150207 L641.68993674199,332.6308429700222 M641.68993674199,332.6308429700222 L647.0234849007313,310.7545084092056 M647.0234849007313,310.7545084092056 L647.0301167782794,285.05611074987564 M647.0301167782794,285.05611074987564 L641.7091583032718,257.0293153956011 M641.7091583032718,257.0293153956011 L631.3697122795529,228.3033133230586 M631.3697122795529,228.3033133230586 L616.6127621518956,200.5480703963683 M616.6127621518956,200.5480703963683 L598.2961651743109,175.37712337423554 M598.2961651743109,175.37712337423554 L577.4847945496123,154.25373263625352 M577.4847945496123,154.25373263625352 L555.3885349546151,138.40571708158654 M521.7897148683401,380.6631840806477 L489.0296369136437,404.26765938661214 M489.0296369136437,404.26765938661214 L459.33158405858296,434.5304714957609 M459.33158405858296,434.5304714957609 L434.7588132054601,467.90922565842607 M434.7588132054601,467.90922565842607 L414.27573281367165,504.93345921576673 M414.27573281367165,504.93345921576673 L399.3276571279009,542.8768908399242 M399.3276571279009,542.8768908399242 L390.51021038200975,579.0474162051439 M390.51021038200975,579.0474162051439 L388.25473247682515,596.7792714691863 M388.25473247682515,596.7792714691863 L387.5361259815049,613.19722113111 M387.5361259815049,613.19722113111 L398.1200139788977,618.6560097572667 M398.1200139788977,618.6560097572667 L407.10260639304056,621.9172392692284 M407.10260639304056,621.9172392692284 L414.32383697015484,622.9782005563527 M414.32383697015484,622.9782005563527 L419.818839227932,622.0105625081699 M419.818839227932,622.0105625081699 L424.78586028910104,618.1056592781085 M424.78586028910104,618.1056592781085 L428.605107186665,607.4811663008151 M428.605107186665,607.4811663008151 L429.03593464247535,590.6534585663309 M429.03593464247535,590.6534585663309 L419.04365382185733,538.531285738941 M419.04365382185733,538.531285738941 L387.57248935877686,458.1955241697916 M387.57248935877686,458.1955241697916 L387.57248935877686,458.1955241697916 M186.13616563429161,341.89620844289146 L186.13616563429161,341.89620844289146 M186.13616563429161,341.89620844289146 L237.42157523718384,437.7435246664702 M237.42157523718384,437.7435246664702 L292.19473768284183,522.7004028327489 M292.19473768284183,522.7004028327489 L308.8065594672812,543.7063553821333 M308.8065594672812,543.7063553821333 L325.4612900678613,562.3061143917031 M325.4612900678613,562.3061143917031 L347.6848280186619,583.7179337917669 M347.6848280186619,583.7179337917669 L364.28326670148755,597.4181023511723 M364.28326670148755,597.4181023511723 L376.2661126881142,606.0940749294641 M376.2661126881142,606.0940749294641 L387.5361259815049,613.19722113111 M186.13616563429161,341.89620844289146 L186.13616563429161,341.89620844289146 M186.13616563429161,341.89620844289146 L237.41344182120673,208.08709544092392 M237.41344182120673,208.08709544092392 L292.1963081128855,112.98509261904229 M292.1963081128855,112.98509261904229 L308.81363951589145,93.81750157298177 M308.81363951589145,93.81750157298177 L325.4746533651926,79.4013440831684 M325.4746533651926,79.4013440831684 L347.7073312872974,67.58028783390961 M347.7073312872974,67.58028783390961 L364.3128381729111,64.55024119319387 M364.3128381729111,64.55024119319387 L376.3007300542808,65.89633098242314 M376.3007300542808,65.89633098242314 L387.57528762955775,70.48967808110774 M387.57808605582045,31.70869932368032 L387.57528762955775,70.48967808110774 M387.57808605582045,31.70869932368032 L408.76049842392365,47.30882691753857 M408.76049842392365,47.30882691753857 L422.858956471974,65.38140963516582 M422.858956471974,65.38140963516582 L429.05364562307886,84.87643107785686 M429.05364562307886,84.87643107785686 L426.98391318714914,104.6610617177015 M426.98391318714914,104.6610617177015 L416.7693575464724,123.58542943887022 M416.7693575464724,123.58542943887022 L399.00305221039287,140.5495013352254 M399.00305221039287,140.5495013352254 L374.71718898601983,154.567037602298 M374.71718898601983,154.567037602298 L345.32317808026806,164.82299093975843 M345.32317808026806,164.82299093975843 L312.52960925160636,170.72097244333662 M312.52960925160636,170.72097244333662 L278.2428776635923,171.9179839025219 M278.2428776635923,171.9179839025219 L244.4563093594591,168.34441430919216 M244.4563093594591,168.34441430919216 L213.1340829260257,160.20808574120662 M213.1340829260257,160.20808574120662 L186.0969887535348,147.982153522644 M186.0969887535348,147.982153522644 L164.91650001794807,132.37752201329528 M164.91650001794807,132.37752201329528 L150.82337218266844,114.30146717365346 M150.82337218266844,114.30146717365346 L144.63619873762696,94.80480082301887 M144.63619873762696,94.80480082301887 L146.71391061871452,75.02072931778503 M146.71391061871452,75.02072931778503 L156.9350814433809,56.09899668243145 M156.9350814433809,56.09899668243145 L174.70512224666345,39.139032156807275 M174.70512224666345,39.139032156807275 L198.9909854710907,25.12613459711116 M198.9909854710907,25.12613459711116 L228.3812609097011,14.874288631262402 M228.3812609097011,14.874288631262402 L261.16821455433467,8.978942214671974 M261.16821455433467,8.978942214671974 L295.44696669708554,7.782489889561418 M295.44696669708554,7.782489889561418 L329.2260192950742,11.354414574362522 M329.2260192950742,11.354414574362522 L360.54291551575,19.487271019345314 M360.54291551575,19.487271019345314 L387.57808605582045,31.70869932368032 M387.5361259815049,613.19722113111 L387.5333298860993,651.9458985583008 M387.5333298860993,651.9458985583008 L360.51017188059933,639.7190362977682 M360.51017188059933,639.7190362977682 L329.2071900046135,631.5825636735615 M329.2071900046135,631.5825636735615 L295.4431453147561,628.0090507476995 M295.4431453147561,628.0090507476995 L261.17962301653796,629.2060350720395 M261.17962301653796,629.2060350720395 L228.40723664503594,635.1040028115231 M228.40723664503594,635.1040028115231 L199.03001981948785,645.3604070805881 M199.03001981948785,645.3604070805881 L174.7549479138329,659.37953501231 M174.7549479138329,659.37953501231 L156.9928039810814,676.3470398911393 M156.9928039810814,676.3470398911393 L146.77617635857706,695.2771846436348 M146.77617635857706,695.2771846436348 L144.69938947181026,715.0700511517032 M144.69938947181026,715.0700511517032 L150.88381534211635,734.575384251189 M150.88381534211635,734.575384251189 L164.9706821405859,752.6594739099753 M164.9706821405859,752.6594739099753 L186.14175984446769,768.2710413540772 M186.14175984446769,768.2710413540772 L213.1668397732514,780.5024075288377 M213.1668397732514,780.5024075288377 L244.47514712613298,788.6423522760477 M244.47514712613298,788.6423522760477 L278.24670084447536,792.2175101104386 M278.24670084447536,792.2175101104386 L312.51819549826763,791.0199666520238 M312.51819549826763,791.0199666520238 L345.29719117624666,785.119363825552 M345.29719117624666,785.119363825552 L374.67814014999624,774.8588521848748 M374.67814014999624,774.8588521848748 L398.9532120555971,760.8350855457757 M398.9532120555971,760.8350855457757 L416.7116238400856,743.8634732962147 M416.7116238400856,743.8634732962147 L426.9216421561513,724.9306934579035 M426.9216421561513,724.9306934579035 L428.99045668744907,705.1372678152243 M428.99045668744907,705.1372678152243 L422.7985217887391,685.6335796236823 M422.7985217887391,685.6335796236823 L408.70632951336063,667.5529620869111 M408.70632951336063,667.5529620869111 L387.5333298860993,651.9458985583008 M555.3885349546151,138.40571708158654 L454.6990454349524,196.5299388354082 M454.6990454349524,196.5299388354082 L476.79552916697094,212.38020850590755 M476.79552916697094,212.38020850590755 L497.60755783562354,233.50598072395232 M497.60755783562354,233.50598072395232 L515.9252084890784,258.67929813258877 M515.9252084890784,258.67929813258877 L530.6835466434349,286.43676251525824 M530.6835466434349,286.43676251525824 L541.0246343302305,315.16470792923826 M541.0246343302305,315.16470792923826 L546.3473926577808,343.1930555001723 M546.3473926577808,343.1930555001723 L546.3426141989149,368.89252400441535 M546.3426141989149,368.89252400441535 L541.0108653109783,390.7693858047282 M541.0108653109783,390.7693858047282 L530.6623870725917,407.5523141801885 M530.6623870725917,407.5523141801885 L515.8990157535634,418.2662757738181 M515.8990157535634,418.2662757738181 L497.5790513001866,422.2890863811652 M497.5790513001866,422.2890863811652 L476.76735784819937,419.387480964187 M476.76735784819937,419.387480964187 L454.67340672908597,409.73054413900866 M454.67340672908597,409.73054413900866 L432.58100811351085,393.8797810184341 M432.58100811351085,393.8797810184341 L411.7737439275062,372.75642603277583 M411.7737439275062,372.75642603277583 L393.4604456383508,347.5878827802536 M393.4604456383508,347.5878827802536 L378.7050506540895,319.83645577446543 M378.7050506540895,319.83645577446543 L368.3648227027421,291.1144278705801 M368.3648227027421,291.1144278705801 L363.0406437146475,263.0905223108211 M363.0406437146475,263.0905223108211 L363.04204657682044,237.39300270819334 M363.04204657682044,237.39300270819334 L368.36923824043674,215.515150230091 M368.36923824043674,215.515150230091 L378.7130216302399,198.72851854816804 M378.7130216302399,198.72851854816804 L393.4726360127616,188.00898940599998 M393.4726360127616,188.00898940599998 L411.7906421078328,183.9800224625996 M411.7906421078328,183.9800224625996 L432.60262441697296,186.87629310008612 M432.60262441697296,186.87629310008612 L454.6990454349524,196.5299388354082 M379.18438140582293,36.55265265850289 L398.60152064129556,50.85294006819015 M398.60152064129556,50.85294006819015 L411.52489830546483,67.41960682295951 M411.52489830546483,67.41960682295951 L417.20307565936514,85.29011020253745 M417.20307565936514,85.29011020253745 L415.3055144783982,103.42599352749471 M415.3055144783982,103.42599352749471 L405.94193145350425,120.77323591721557 M405.94193145350425,120.77323591721557 L389.65600817877754,136.32347940443725 M389.65600817877754,136.32347940443725 L367.3939668657775,149.17271043415715 M367.3939668657775,149.17271043415715 L340.44959755302676,158.57384445464902 M340.44959755302676,158.57384445464902 L310.38906849567985,163.98021969715484 M310.38906849567985,163.98021969715484 L278.9598810554925,165.07745980117707 M278.9598810554925,165.07745980117707 L247.98913988978177,161.8017509062512 M247.98913988978177,161.8017509062512 L219.2773026080278,154.34358545628464 M219.2773026080278,154.34358545628464 L194.49337575034144,143.13665222261267 M194.49337575034144,143.13665222261267 L175.07785289987407,128.83258027317652 M175.07785289987407,128.83258027317652 L162.15895409539047,112.26299597129247 M162.15895409539047,112.26299597129247 L156.48709202363966,94.39111041185504 M156.48709202363966,94.39111041185504 L158.39135815224688,76.25569691504137 M158.39135815224688,76.25569691504137 L167.76049977216582,58.9106687300291 M167.76049977216582,58.9106687300291 L184.04956187739447,43.363876575633014 M184.04956187739447,43.363876575633014 L206.31160319043283,30.51854334885752 M206.31160319043283,30.51854334885752 L233.25283367272505,21.12086066176272 M233.25283367272505,21.12086066176272 L263.3078041350198,15.716699621365365 M263.3078041350198,15.716699621365365 L294.73028662749266,14.619929345671494 M294.73028662749266,14.619929345671494 L325.6947125109965,17.89425606072939 M325.6947125109965,17.89425606072939 L354.402070933074,25.34950396414382 M354.402070933074,25.34950396414382 L379.18438140582293,36.55265265850289 M379.14335434714104,656.7920055846308 L354.3720554285189,645.5838757633946 M354.3720554285189,645.5838757633946 L325.67745200324896,638.125313030376 M325.67745200324896,638.125313030376 L294.7267836270938,634.8495304278408 M294.7267836270938,634.8495304278408 L263.31826209095215,635.9467883699264 M263.31826209095215,635.9467883699264 L233.2766451913804,641.3533522864903 M233.2766451913804,641.3533522864903 L206.3473852320338,650.7552134183913 M206.3473852320338,650.7552134183913 L184.0952359612353,663.6062578195425 M184.0952359612353,663.6062578195425 L167.81341252758136,679.1599619649024 M167.81341252758136,679.1599619649024 L158.4484352797183,696.5127012599526 M158.4484352797183,696.5127012599526 L156.54501679253588,714.656176839703 M156.54501679253588,714.656176839703 L162.21435999932896,732.5360069208057 M162.21435999932896,732.5360069208057 L175.12751934150236,749.1129564735803 M175.12751934150236,749.1129564735803 L194.534415346986,763.4233863625382 M194.534415346986,763.4233863625382 L219.3073292143966,774.6353007230875 M219.3073292143966,774.6353007230875 L248.00640751990323,782.0967810026586 M248.00640751990323,782.0967810026586 L278.96338556717484,785.3739457850619 M278.96338556717484,785.3739457850619 L310.37860609372564,784.276218014648 M310.37860609372564,784.276218014648 L340.42577664957133,778.8674398959754 M340.42577664957133,778.8674398959754 L367.35817265054453,769.462127430677 M367.35817265054453,769.462127430677 L389.6103219213048,756.6071852265804 M389.6103219213048,756.6071852265804 L405.88900931328874,741.0500297483943 M405.88900931328874,741.0500297483943 L415.2484329049049,723.6950762486354 M415.2484329049049,723.6950762486354 L417.1451524017526,705.5511308407413 M417.1451524017526,705.5511308407413 L411.4694995239,687.6726829394984 M411.4694995239,687.6726829394984 L398.5518653014808,671.0986509338388 M398.5518653014808,671.0986509338388 L379.14335434714104,656.7920055846308 M379.18438140582293,36.55265265850289 L379.17668605427264,152.8895293298811 M379.17668605427264,152.8895293298811 L354.39644099357577,141.68544566237802 M354.39644099357577,141.68544566237802 L325.69147499707185,134.2295755550639 M325.69147499707185,134.2295755550639 L294.7296295777282,130.9549755653706 M294.7296295777282,130.9549755653706 L263.309765709871,132.0518373775721 M263.309765709871,132.0518373775721 L233.25729994477626,137.45644944534786 M233.25729994477626,137.45644944534786 L206.31831474610584,146.85491643963098 M206.31831474610584,146.85491643963098 L184.05812886085425,159.70132167177667 M184.05812886085425,159.70132167177667 L167.77042449677947,175.24941122864576 M167.77042449677947,175.24941122864576 L158.40206397870656,192.5958868133718 M158.40206397870656,192.5958868133718 L156.49795684036764,210.73281358870443 M156.49795684036764,210.73281358870443 L162.16934645446207,228.60619036012088 M162.16934645446207,228.60619036012088 L175.0871687211665,245.17715714309136 M175.0871687211665,245.17715714309136 L194.50107345403399,259.48242249811443 M194.50107345403399,259.48242249811443 L219.28293463024386,270.690290705272 M219.28293463024386,270.690290705272 L247.99237873987505,278.14907835940176 M247.99237873987505,278.14907835940176 L278.9605383887761,281.4250605290877 M278.9605383887761,281.4250605290877 L310.38710608674796,280.3277288885156 M310.38710608674796,280.3277288885156 L340.4451295203722,274.92090261843134 M340.4451295203722,274.92090261843134 L367.3872530263118,265.5189842904394 M367.3872530263118,265.5189842904394 L389.6474389115252,252.66868125499707 M389.6474389115252,252.66868125499707 L405.9320049682872,237.11714036499063 M405.9320049682872,237.11714036499063 L415.2948078178579,219.768450575356 M415.2948078178579,219.768450575356 L417.1922111261564,201.63105397183736 M417.1922111261564,201.63105397183736 L411.5145072825618,183.75905938040523 M411.5145072825618,183.75905938040523 L398.5922069027209,167.1910101448129 M398.5922069027209,167.1910101448129 L379.17668605427264,152.8895293298811 M379.14335434714104,656.7920055846308 L379.15104414336804,540.5391132451115 M379.15104414336804,540.5391132451115 L398.5611723162705,554.8445677716461 M398.5611723162705,554.8445677716461 L411.4798830451257,571.4172202883522 M411.4798830451257,571.4172202883522 L417.15600909123793,589.2941802050777 M417.15600909123793,589.2941802050777 L415.25913183549824,607.4366156096739 M415.25913183549824,607.4366156096739 L405.898928631648,624.790124842357 M405.898928631648,624.790124842357 L389.6188850014641,640.3459857260661 M389.6188850014641,640.3459857260661 L367.3648816424646,653.1998582449565 M367.3648816424646,653.1998582449565 L340.4302414561607,662.6043881005597 M340.4302414561607,662.6043881005597 L310.3805670857234,668.0127161680223 M310.3805670857234,668.0127161680223 L278.9627287085117,669.1103526000433 M278.9627287085117,669.1103526000433 L248.0031710083761,665.8334605008207 M248.0031710083761,665.8334605008207 L219.30170125865953,658.3726010785 M219.30170125865953,658.3726010785 L194.52672320116352,647.1616196675119 M194.52672320116352,647.1616196675119 L175.11821024624993,632.8523806008865 M175.11821024624993,632.8523806008865 L162.2039751433815,616.276810536802 M162.2039751433815,616.276810536802 L156.5341598198383,598.3984684400921 M156.5341598198383,598.3984684400921 L158.43773718230273,580.256502863682 M158.43773718230273,580.256502863682 L167.8034949679191,562.9052078359074 M167.8034949679191,562.9052078359074 L184.08667516239586,547.3527982853359 M184.08667516239586,547.3527982853359 L206.34067852143357,534.5028235697422 M206.34067852143357,534.5028235697422 L233.27218214348812,525.101745047848 M233.27218214348812,525.101745047848 L263.3163019321321,519.6956311826941 M263.3163019321321,519.6956311826941 L294.7274402025448,518.5984645790438 M294.7274402025448,518.5984645790438 L325.6806871800542,521.8739744982734 M325.6806871800542,521.8739744982734 L354.3776813037932,529.3319163737784 M354.3776813037932,529.3319163737784 L379.15104414336804,540.5391132451115" stroke="black"  stroke-width="4"  fill="red"/></svg>